<svg width="48" height="48" xmlns="http://www.w3.org/2000/svg">
 <title>baht, thai, currency</title>
 <defs>
  <filter height="200%" width="200%" y="-50%" x="-50%" id="svg_2_blur">
   <feGaussianBlur stdDeviation="0" in="SourceGraphic"/>
  </filter>
 </defs>
 <g>
  <title>background</title>
  <rect fill="none" id="canvas_background" height="402" width="582" y="-1" x="-1"/>
 </g>
 <g>
  <title>Layer 1</title>
  <g stroke="null" id="svg_1">
   <path stroke="null" filter="url(#svg_2_blur)" id="svg_2" fill="#000" d="m38.025595,17.410266a8.669352,8.968895 0 0 0 -8.658097,-8.957251l-3.246786,0l0,-2.239313a2.164524,2.239313 0 0 0 -4.329048,0l0,2.239313l-7.575834,0a2.164524,2.239313 0 0 0 -2.164524,2.239313l0,26.871753a2.164524,2.239313 0 0 0 2.164524,2.239313l7.575834,0l0,2.239313a2.164524,2.239313 0 0 0 4.329048,0l0,-2.239313l3.246786,0a8.621083,8.918959 0 0 0 5.664993,-15.675189a8.604416,8.901716 0 0 0 2.993104,-6.717938zm-21.645241,-4.478625l5.41131,0l0,8.957251l-5.41131,0l0,-8.957251zm0,22.393127l0,-8.957251l5.41131,0l0,8.957251l-5.41131,0zm17.316193,-4.478625a4.332079,4.481761 0 0 1 -4.329048,4.478625l-3.246786,0l0,-8.957251l3.246786,0a4.332079,4.481761 0 0 1 4.329048,4.478625zm-7.575834,-8.957251l0,-8.957251l3.246786,0a4.329048,4.478625 0 0 1 0,8.957251l-3.246786,0z"/>
  </g>
 </g>
</svg>