<?xml version="1.0" encoding="utf-8"?>
<!-- Generator: Adobe Illustrator 16.0.0, SVG Export Plug-In . SVG Version: 6.00 Build 0)  -->
<!DOCTYPE svg PUBLIC "-//W3C//DTD SVG 1.1//EN" "http://www.w3.org/Graphics/SVG/1.1/DTD/svg11.dtd">
<svg version="1.1" id="icons" xmlns="http://www.w3.org/2000/svg" xmlns:xlink="http://www.w3.org/1999/xlink" x="0px" y="0px"
	 width="24px" height="24px" viewBox="0 0 24 24" enable-background="new 0 0 24 24" xml:space="preserve">
<g>
	<path fill="#FFFFFF" d="M21,5V3c0-1.654-1.346-3-3-3h-8v2h8c0.552,0,1,0.449,1,1v2h-6c-1.654,0-3,1.346-3,3v6H9.12L6,16.773V14H3
		c-0.552,0-1-0.449-1-1V6H0v7c0,1.654,1.346,3,3,3h1v5.228L9.88,16H10c0,1.654,1.346,3,3,3h3.586L21,23.414V19c1.654,0,3-1.346,3-3
		V8C24,6.346,22.654,5,21,5z M22,16c0,0.551-0.448,1-1,1h-2v1.586L17.414,17H13c-0.552,0-1-0.449-1-1h0.004v-2H12V8
		c0-0.551,0.448-1,1-1h8c0.552,0,1,0.449,1,1V16z"/>
	<rect x="4" y="10" fill="#FFFFFF" width="2" height="2"/>
	<rect x="16" y="14" fill="#FFFFFF" width="2" height="2"/>
	<rect x="16" y="8" fill="#FFFFFF" width="2" height="5"/>
	<path fill="#FFFFFF" d="M6,7.874C7.724,7.428,9,5.86,9,4c0-2.206-1.794-4-4-4S1,1.794,1,4h2c0-1.103,0.897-2,2-2s2,0.897,2,2
		c0,1.103-0.897,2-2,2H4v3h2V7.874z"/>
</g>
</svg>
