<?xml version="1.0" encoding="utf-8"?>
<!-- Generator: Adobe Illustrator 16.0.0, SVG Export Plug-In . SVG Version: 6.00 Build 0)  -->
<!DOCTYPE svg PUBLIC "-//W3C//DTD SVG 1.1//EN" "http://www.w3.org/Graphics/SVG/1.1/DTD/svg11.dtd">
<svg version="1.1" id="icons" xmlns="http://www.w3.org/2000/svg" xmlns:xlink="http://www.w3.org/1999/xlink" x="0px" y="0px"
	 width="24px" height="24px" viewBox="0 0 24 24" enable-background="new 0 0 24 24" xml:space="preserve">
<path fill="#FFFFFF" d="M20,15c-0.625,0-1.21,0.157-1.737,0.414l-3.97-7.146C15.322,7.544,16,6.352,16,5c0-2.206-1.794-4-4-4
	S8,2.794,8,5c0,1.352,0.678,2.544,1.707,3.268l-3.97,7.146C5.21,15.157,4.625,15,4,15c-2.206,0-4,1.794-4,4s1.794,4,4,4
	c1.858,0,3.411-1.28,3.857-3h8.285c0.446,1.72,1.999,3,3.857,3c2.206,0,4-1.794,4-4S22.206,15,20,15z M12,3c1.103,0,2,0.897,2,2
	c0,1.103-0.897,2-2,2s-2-0.897-2-2C10,3.897,10.897,3,12,3z M12,9c0.134,0,0.26-0.026,0.39-0.04l4.319,7.774
	c-0.262,0.379-0.448,0.808-0.566,1.265H7.857c-0.118-0.457-0.305-0.886-0.566-1.265L11.61,8.96C11.74,8.974,11.866,9,12,9z M4,21
	c-1.103,0-2-0.897-2-2c0-1.103,0.897-2,2-2s2,0.897,2,2C6,20.103,5.103,21,4,21z M20,21c-1.103,0-2-0.897-2-2c0-1.103,0.897-2,2-2
	s2,0.897,2,2C22,20.103,21.103,21,20,21z"/>
</svg>
