<?xml version="1.0" encoding="utf-8"?>
<!-- Generator: Adobe Illustrator 16.0.0, SVG Export Plug-In . SVG Version: 6.00 Build 0)  -->
<!DOCTYPE svg PUBLIC "-//W3C//DTD SVG 1.1//EN" "http://www.w3.org/Graphics/SVG/1.1/DTD/svg11.dtd">
<svg version="1.1" id="icons" xmlns="http://www.w3.org/2000/svg" xmlns:xlink="http://www.w3.org/1999/xlink" x="0px" y="0px"
	 width="24px" height="24px" viewBox="0 0 24 24" enable-background="new 0 0 24 24" xml:space="preserve">
<g>
	<polygon fill="#f44336" points="15.535,7.05 12,10.586 8.465,7.05 7.051,8.464 10.586,12 7.051,15.536 8.465,16.951 12,13.415 
		15.535,16.951 16.949,15.536 13.414,12 16.949,8.464 	"/>
	<path fill="#f44336" d="M12,0C5.383,0,0,5.383,0,12s5.383,12,12,12s12-5.383,12-12S18.617,0,12,0z M12,22C6.486,22,2,17.515,2,12
		C2,6.486,6.486,2,12,2s10,4.486,10,10C22,17.515,17.514,22,12,22z"/>
</g>
</svg>
